{"scene":0,"asset":{"generator":"ImageToStl.com","version":"2.0"},"scenes":[{"name":"Scene","nodes":[0]}],"nodes":[{"name":"Node0","children":[1]},{"name":"Node1","mesh":0}],"materials":[{"name":"x1","pbrMetallicRoughness":{"baseColorFactor":[0.85,0.85,0.85,1.0],"metallicFactor":0.05,"roughnessFactor":0.5},"doubleSided":true}],"meshes":[{"name":"Mesh0","primitives":[{"indices":3,"material":0,"attributes":{"POSITION":0,"NORMAL":1,"TEXCOORD_0":2}}]}],"accessors":[{"bufferView":0,"componentType":5126,"count":4725,"type":"VEC3","min":[-0.585345,-0.721043,-0.107647],"max":[0.741905,0.739535,0.924882]},{"bufferView":1,"componentType":5126,"count":4725,"type":"VEC3"},{"bufferView":2,"componentType":5126,"count":4725,"type":"VEC2"},{"bufferView":3,"componentType":5123,"count":34452,"type":"SCALAR"}],"bufferViews":[{"target":34962,"buffer":0,"byteLength":56700,"byteOffset":0},{"target":34962,"buffer":0,"byteLength":56700,"byteOffset":56700},{"target":34962,"buffer":0,"byteLength":37800,"byteOffset":113400},{"target":34963,"buffer":0,"byteLength":68904,"byteOffset":151200}],"buffers":[{"byteLength":220104,"uri":"data:application/octet-stream;base64,"}]}